ffmpeg version 3.4.8-0ubuntu0.2 Copyright (c) 2000-2020 the FFmpeg developers
  built with gcc 7 (Ubuntu 7.5.0-3ubuntu1~18.04)
  configuration: --prefix=/usr --extra-version=0ubuntu0.2 --toolchain=hardened --libdir=/usr/lib/x86_64-linux-gnu --incdir=/usr/include/x86_64-linux-gnu --enable-gpl --disable-stripping --enable-avresample --enable-avisynth --enable-gnutls --enable-ladspa --enable-libass --enable-libbluray --enable-libbs2b --enable-libcaca --enable-libcdio --enable-libflite --enable-libfontconfig --enable-libfreetype --enable-libfribidi --enable-libgme --enable-libgsm --enable-libmp3lame --enable-libmysofa --enable-libopenjpeg --enable-libopenmpt --enable-libopus --enable-libpulse --enable-librubberband --enable-librsvg --enable-libshine --enable-libsnappy --enable-libsoxr --enable-libspeex --enable-libssh --enable-libtheora --enable-libtwolame --enable-libvorbis --enable-libvpx --enable-libwavpack --enable-libwebp --enable-libx265 --enable-libxml2 --enable-libxvid --enable-libzmq --enable-libzvbi --enable-omx --enable-openal --enable-opengl --enable-sdl2 --enable-libdc1394 --enable-libdrm --enable-libiec61883 --enable-chromaprint --enable-frei0r --enable-libopencv --enable-libx264 --enable-shared
  libavutil      55. 78.100 / 55. 78.100
  libavcodec     57.107.100 / 57.107.100
  libavformat    57. 83.100 / 57. 83.100
  libavdevice    57. 10.100 / 57. 10.100
  libavfilter     6.107.100 /  6.107.100
  libavresample   3.  7.  0 /  3.  7.  0
  libswscale      4.  8.100 /  4.  8.100
  libswresample   2.  9.100 /  2.  9.100
  libpostproc    54.  7.100 / 54.  7.100
[rawvideo @ 0x55b37a570a20] Estimating duration from bitrate, this may be inaccurate
Input #0, rawvideo, from '../../SVC-Encoder-20220109T061506Z-001/SVC-Encoder/Dataset/RollerCoaster/ERP_8x8/tile_yuv/Tile_40_480x240.yuv':
  Duration: 00:00:10.00, start: 0.000000, bitrate: 41472 kb/s
    Stream #0:0: Video: rawvideo (I420 / 0x30323449), yuv420p, 480x240, 41472 kb/s, 30 tbr, 30 tbn, 30 tbc
Stream mapping:
  Stream #0:0 -> #0:0 (rawvideo (native) -> h264 (libx264))
Press [q] to stop, [?] for help
[libx264 @ 0x55b37a57dc60] using cpu capabilities: MMX2 SSE2Fast LZCNT SSSE3 SSE4.2 AVX
[libx264 @ 0x55b37a57dc60] profile High, level 2.1
Output #0, rawvideo, to 'RollerCoaster_Tile_40_480x240_x264_QP_32.h264':
  Metadata:
    encoder         : Lavf57.83.100
    Stream #0:0: Video: h264 (libx264), yuv420p, 480x240, q=-1--1, 30 fps, 30 tbn, 30 tbc
    Metadata:
      encoder         : Lavc57.107.100 libx264
    Side data:
      cpb: bitrate max/min/avg: 0/0/0 buffer size: 0 vbv_delay: -1
frame=  165 fps=0.0 q=38.0 PSNR=Y:nan U:nan V:nan *:nan size=      72kB time=00:00:04.06 bitrate= 144.0kbits/s speed=8.11x    frame=  300 fps=297 q=38.0 LPSNR=Y:inf U:inf V:inf *:inf size=     162kB time=00:00:09.93 bitrate= 133.6kbits/s speed=9.85x    
video:162kB audio:0kB subtitle:0kB other streams:0kB global headers:0kB muxing overhead: 0.000000%
[libx264 @ 0x55b37a57dc60] frame I:2     Avg QP:29.66  size: 10506  PSNR Mean Y:37.59 U:45.16 V:44.89 Avg:38.97 Global:38.93
[libx264 @ 0x55b37a57dc60] frame P:76    Avg QP:31.14  size:  1243  PSNR Mean Y:36.53 U:45.42 V:45.41 Avg:38.02 Global:37.99
[libx264 @ 0x55b37a57dc60] frame B:222   Avg QP:37.48  size:   227  PSNR Mean Y:36.11 U:45.28 V:45.25 Avg:37.62 Global:37.60
[libx264 @ 0x55b37a57dc60] consecutive B-frames:  1.0%  0.7%  1.0% 97.3%
[libx264 @ 0x55b37a57dc60] mb I  I16..4: 12.7% 60.1% 27.2%
[libx264 @ 0x55b37a57dc60] mb P  I16..4:  0.4%  0.6%  0.3%  P16..4: 41.9% 13.8%  5.5%  0.0%  0.0%    skip:37.4%
[libx264 @ 0x55b37a57dc60] mb B  I16..4:  0.0%  0.0%  0.0%  B16..8: 33.0%  1.9%  0.2%  direct: 0.1%  skip:64.8%  L0:40.5% L1:56.9% BI: 2.5%
[libx264 @ 0x55b37a57dc60] 8x8 transform intra:55.4% inter:72.3%
[libx264 @ 0x55b37a57dc60] coded y,uvDC,uvAC intra: 70.5% 60.8% 14.7% inter: 4.5% 1.9% 0.0%
[libx264 @ 0x55b37a57dc60] i16 v,h,dc,p: 19% 23% 23% 35%
[libx264 @ 0x55b37a57dc60] i8 v,h,dc,ddl,ddr,vr,hd,vl,hu:  8% 32% 17%  4%  7%  4%  9%  5% 13%
[libx264 @ 0x55b37a57dc60] i4 v,h,dc,ddl,ddr,vr,hd,vl,hu:  9% 28% 17%  4% 11%  8% 11%  3%  9%
[libx264 @ 0x55b37a57dc60] i8c dc,h,v,p: 51% 23% 16% 11%
[libx264 @ 0x55b37a57dc60] Weighted P-Frames: Y:0.0% UV:0.0%
[libx264 @ 0x55b37a57dc60] ref P L0: 58.1% 17.6% 18.8%  5.5%
[libx264 @ 0x55b37a57dc60] ref B L0: 81.1% 16.0%  2.9%
[libx264 @ 0x55b37a57dc60] ref B L1: 83.1% 16.9%
[libx264 @ 0x55b37a57dc60] PSNR Mean Y:36.230 U:45.313 V:45.288 Avg:37.729 Global:37.707 kb/s:132.76
